<mxfile host="app.diagrams.net" modified="2023-09-15T07:54:23.200Z" agent="Mozilla/5.0 (X11; Linux x86_64) AppleWebKit/537.36 (KHTML, like Gecko) Chrome/116.0.0.0 Safari/537.36" version="21.6.6" etag="Ff2UB8fiowpvz1nfZhm6" type="github">
  <diagram name="Page-1" id="-dDfaonKO4LJhzuN5SCl">
    <mxGraphModel>
      <root>
        <mxCell id="0" />
        <mxCell id="1" parent="0" />
      </root>
    </mxGraphModel>
  </diagram>
</mxfile>
